<svg version="1.2" xmlns="http://www.w3.org/2000/svg" viewBox="0 0 842 842" width="842" height="842">
	<style>
		.s0 { fill: #fad7c6 } 
		.s1 { fill: #f9bf89 } 
		.s2 { fill: #dfebf2 } 
		.s3 { fill: none;stroke: #ffffff;stroke-width: .4 } 
		.s4 { fill: #a1c4e9;stroke: #ffffff;stroke-width: .4 } 
		.s5 { fill: #ef7a0b;stroke: #ffffff;stroke-width: .4 } 
		.s6 { fill: #f9bf89;stroke: #ffffff;stroke-width: .4 } 
		.s7 { fill: #096cb5;stroke: #ffffff;stroke-width: .4 } 
		.s8 { fill: #1c3482 } 
		.s9 { fill: none;stroke: #ef7a0b;stroke-miterlimit:10;stroke-width: .8 } 
		.s10 { fill: #ef7a0b } 
		.s11 { fill: #096cb5 } 
		.s12 { fill: #a1c4e9 } 
		.s13 { fill: #000000 } 
	</style>
	<g id="Layer 1">
		<path id="Path 5" fill-rule="evenodd" class="s0" d="m292.05 364.77l-159.55 197.3-90.73 0.54 170.65-197.22z"/>
		<path id="Path 6" fill-rule="evenodd" class="s1" d="m43.87 562.74h736.71l-372.3-426.84z"/>
		<path id="Path 8" fill-rule="evenodd" class="s2" d="m530.74 276.47c39.67 45.87 59.45 100.77 58.16 99.83-18.07-13.13-39.2-9.57-66.38-13.76-20.56-3.17-44.27-15.59-74.43-15.59-30.95 0-76.41 14.81-99.96 19.14-56.83 10.45-138.49 1.98-138.49 1.98l198.15-232.54c0 0 63.82 72.58 122.95 140.94z"/>
		<path id="Path 9" fill-rule="evenodd" class="s3" d="m531.23 276.83c39.67 45.87 59.45 100.77 58.16 99.82-18.07-13.13-39.2-9.56-66.38-13.75-20.56-3.17-44.27-15.59-74.43-15.59-30.95 0-76.41 14.81-99.96 19.13-56.83 10.46-139.55 1.68-139.55 1.68l199.21-232.23c0 0 63.82 72.58 122.95 140.94z"/>
		<path id="Path 10" fill-rule="evenodd" class="s1" d="m428.65 159.26c-2.28-2.99-20.37-23.37-20.37-23.37l-294.42 343.42c0 0 216.96-251.86 275.01-319.92 0 0 39.89 0.01 39.78-0.13z"/>
		<path id="Path 11" fill-rule="evenodd" class="s3" d="m428.65 159.26c-2.28-2.99-20.37-23.37-20.37-23.37l-294.42 343.42c0 0 219.1-255.72 274.31-319.92 0 0 40.59 0.01 40.48-0.13z"/>
		<path id="Path 12" fill-rule="evenodd" class="s4" d="m466.84 253.37c-10.27 26.72-39.66 39.84-61.66 29.5-21.99-10.32-33.09-41.96-22.83-68.69 10.27-26.72 38.02-38.44 60.02-28.1 21.99 10.33 34.73 40.56 24.47 67.29z"/>
		<path id="Path 13" fill-rule="evenodd" class="s5" d="m780.45 562.61c0 0-0.05-0.12-0.21-0.3-38.92-45.06-75.76-86.66-109.85-125.84-67.79-47.47-142.99-53.34-249.01-51.74-102.34 1.74-199.02 3.96-270.32 51.09-29.4 35.1-74.3 86-108.5 126.05q-0.4 0.73-0.4 0.73z"/>
		<path id="Path 14" fill-rule="evenodd" class="s6" d="m589.39 376.96c-26.38-24.29-75.03-71.85-86.9-133.08l110.47 126.59c0 0-6.01 22.65-23.57 6.49z"/>
		<path id="Path 15" fill-rule="evenodd" class="s7" d="m430.81 229.58c-15.13 0-27.35-10.04-27.35-22.47 0-12.42 12.22-22.46 27.35-22.46 15.13 0 27.35 10.04 27.35 22.46 0 12.43-12.22 22.47-27.35 22.47z"/>
		<path id="Ca-CEC" class="s8" aria-label="Ca-CEC"  d="m90.9 276.2v4.7q-1.6 0.8-3.4 1.2-1.7 0.5-3.6 0.4-5.7 0-9-3.2-3.3-3.2-3.2-8.6 0-5.4 3.3-8.6 3.3-3.1 9-3.1 1.9 0 3.7 0.5 1.7 0.4 3.3 1.3v4.6q-1.6-1.1-3.2-1.6-1.6-0.5-3.3-0.5-3.2-0.1-5 1.9-1.8 2-1.8 5.6 0 3.5 1.8 5.5 1.7 2 4.9 2 1.7 0 3.3-0.5 1.6-0.5 3.2-1.6zm15.1-1.6h-2.9q-1.7 0-2.5 0.5-0.9 0.6-0.9 1.7 0 1.1 0.7 1.7 0.7 0.5 1.9 0.5 1.5 0.1 2.6-1 1.1-1.1 1.1-2.8zm5.5-2l-0.1 9.7h-5.5v-2.6q-1.1 1.6-2.4 2.3-1.4 0.7-3.4 0.7-2.6 0-4.3-1.6-1.6-1.5-1.6-4 0-3 2.1-4.4 2.1-1.4 6.5-1.3h3.2v-0.4q0-1.3-1-1.9-1-0.7-3.2-0.7-1.7 0-3.2 0.4-1.5 0.3-2.8 1v-4.2q1.7-0.4 3.5-0.6 1.8-0.2 3.5-0.2 4.6 0.1 6.7 1.9 2 1.8 2 5.9zm4.1 3v-4.4h9.5v4.4zm32.1 1l-0.1 4.7q-1.6 0.9-3.3 1.3-1.8 0.4-3.7 0.4-5.6-0.1-8.9-3.2-3.3-3.2-3.3-8.7 0.1-5.4 3.4-8.5 3.3-3.2 9-3.1 1.9 0 3.6 0.4 1.8 0.4 3.4 1.3l-0.1 4.7q-1.6-1.1-3.2-1.7-1.5-0.5-3.3-0.5-3.1 0-4.9 2-1.8 2-1.8 5.5-0.1 3.5 1.7 5.5 1.8 2 4.9 2 1.8 0.1 3.4-0.5 1.5-0.5 3.2-1.6zm4.8 6l0.1-22.7 15.8 0.1v4.5l-10-0.1v4.2l9.4 0.1-0.1 4.4-9.3-0.1v5.2l10.2 0.1v4.4zm39.3-5.7l-0.1 4.7q-1.6 0.8-3.3 1.2-1.8 0.5-3.7 0.4-5.6 0-8.9-3.2-3.3-3.2-3.3-8.6 0-5.4 3.4-8.6 3.3-3.1 9-3.1 1.9 0 3.6 0.5 1.8 0.4 3.4 1.2l-0.1 4.7q-1.6-1.1-3.2-1.6-1.5-0.5-3.3-0.5-3.1-0.1-4.9 1.9-1.8 2-1.8 5.6-0.1 3.5 1.7 5.5 1.8 2 4.9 2 1.8 0 3.4-0.5 1.5-0.5 3.2-1.6z"/>
		<path id="(%)" class="s8" aria-label="(%)"  d="m107.6 289.9h1.5q-1.2 2.2-1.9 4.3-0.6 2.2-0.6 4.4 0 2.1 0.6 4.3 0.6 2.2 1.8 4.3h-1.5q-1.4-2.2-2.1-4.4-0.7-2.1-0.7-4.3 0-2.1 0.8-4.2 0.7-2.2 2.1-4.4zm17.2 8.6q-0.8 0-1.3 0.7-0.5 0.7-0.5 2 0 1.2 0.4 1.9 0.5 0.7 1.3 0.7 0.9 0 1.3-0.7 0.5-0.7 0.5-1.9 0-1.2-0.5-1.9-0.4-0.8-1.2-0.8zm0-1.2q1.5 0 2.4 1.1 0.8 1 0.8 2.8 0 1.8-0.9 2.8-0.9 1.1-2.4 1-1.5 0-2.4-1-0.8-1.1-0.8-2.8 0-1.8 0.9-2.8 0.9-1.1 2.4-1.1zm-9.8-5.8q-0.8 0-1.3 0.7-0.4 0.7-0.4 1.9-0.1 1.3 0.4 2 0.5 0.7 1.3 0.7 0.8 0 1.3-0.7 0.5-0.7 0.5-2 0-1.2-0.5-1.9-0.5-0.7-1.3-0.7zm-0.4 13.5l9-14.7h1.5l-8.9 14.7zm0.3-14.7q1.5 0 2.4 1.1 0.9 1 0.9 2.8 0 1.8-0.9 2.8-0.9 1-2.4 1-1.5 0-2.4-1-0.9-1.1-0.8-2.9 0-1.7 0.9-2.8 0.8-1 2.3-1zm15.7-0.2h1.6q1.4 2.2 2.1 4.4 0.7 2.1 0.6 4.2 0 2.2-0.7 4.3-0.7 2.2-2.1 4.4h-1.6q1.3-2.2 1.9-4.3 0.7-2.2 0.7-4.4 0-2.2-0.6-4.3-0.6-2.1-1.9-4.3z"/>
		<path id="Path 17" fill-rule="evenodd" class="s9" d="m118.37 338.6l-24.16-0.12"/>
		<path id="Path 18" fill-rule="evenodd" class="s10" d="m113.81 322.83l27.35 15.96-27.5 15.7z"/>
		<path id="Mg-CEC" class="s8" aria-label="Mg-CEC"  d="m622.2 283.3l-0.2-22.7 7.5-0.1 5.2 12.1 5.1-12.2 7.4-0.1 0.3 22.7-5.6 0.1-0.1-16.6-5.1 12.3h-3.7l-5.4-12.2 0.2 16.6zm42.2-2.1v-1.2q-1.1 1.5-2.4 2.2-1.4 0.8-3.2 0.8-3.1 0-5.1-2.4-2.1-2.5-2.1-6.3 0-3.8 2-6.2 2-2.5 5.1-2.5 1.8 0 3.1 0.7 1.4 0.6 2.5 2.1v-2.5h5.5l0.1 15.3q0 4.1-2.5 6.3-2.6 2.1-7.5 2.2-1.6 0-3.1-0.2-1.5-0.3-3-0.8v-4.2q1.4 0.8 2.8 1.2 1.3 0.4 2.7 0.4 2.7 0 3.9-1.2 1.3-1.2 1.2-3.7zm-3.7-11.7q-1.6 0-2.6 1.3-0.9 1.2-0.9 3.5 0 2.3 1 3.5 0.9 1.2 2.6 1.2 1.7 0 2.7-1.3 0.9-1.2 0.9-3.5 0-2.3-1-3.5-1-1.2-2.7-1.2zm13.5 6.6l-0.1-4.4 9.6-0.1v4.4zm32.1 0.5v4.7q-1.6 0.9-3.3 1.3-1.8 0.5-3.7 0.5-5.6 0-9-3.1-3.3-3.2-3.4-8.6 0-5.4 3.3-8.6 3.2-3.2 8.9-3.3 1.9 0 3.7 0.4 1.7 0.4 3.3 1.3l0.1 4.7q-1.7-1.1-3.3-1.6-1.5-0.5-3.3-0.5-3.1 0-4.9 2-1.8 2-1.7 5.6 0 3.5 1.8 5.5 1.8 2 5 1.9 1.7 0 3.3-0.5 1.5-0.5 3.2-1.7zm4.9 5.9l-0.2-22.7 15.7-0.1 0.1 4.4-10 0.1 0.1 4.2h9.3l0.1 4.4-9.4 0.1 0.1 5.2 10.2-0.1 0.1 4.4zm39.2-6.3v4.7q-1.6 0.8-3.3 1.3-1.8 0.4-3.7 0.4-5.7 0.1-9-3-3.3-3.2-3.4-8.6 0-5.5 3.3-8.6 3.2-3.2 8.9-3.3 1.9 0 3.7 0.4 1.7 0.4 3.3 1.2l0.1 4.7q-1.7-1.1-3.3-1.6-1.5-0.5-3.3-0.5-3.1 0.1-4.9 2.1-1.8 2-1.7 5.5 0 3.5 1.8 5.5 1.8 2 4.9 2 1.8 0 3.4-0.6 1.5-0.5 3.2-1.6z"/>
		<path id="(%)" class="s8" aria-label="(%)"  d="m661.1 289.8l1.5-0.1q-1.2 2.2-1.8 4.4-0.6 2.1-0.6 4.3 0 2.2 0.7 4.4 0.6 2.1 1.9 4.3h-1.5q-1.5-2.3-2.2-4.4-0.7-2.1-0.7-4.3-0.1-2.1 0.6-4.2 0.7-2.2 2.1-4.4zm17.3 8.3q-0.8 0-1.3 0.7-0.5 0.7-0.4 2 0 1.2 0.4 1.9 0.5 0.7 1.3 0.7 0.9 0 1.3-0.7 0.5-0.7 0.5-1.9 0-1.3-0.5-2-0.5-0.7-1.3-0.7zm0-1.2q1.5 0 2.4 1 0.9 1.1 0.9 2.8 0 1.8-0.9 2.9-0.9 1-2.3 1-1.6 0-2.5-1-0.8-1-0.9-2.8 0-1.8 0.9-2.8 0.9-1.1 2.4-1.1zm-9.9-5.7q-0.8 0-1.2 0.7-0.5 0.7-0.5 2 0 1.2 0.5 1.9 0.5 0.7 1.3 0.7 0.8 0 1.3-0.7 0.4-0.7 0.4-2 0-1.2-0.5-1.9-0.4-0.7-1.3-0.7zm-0.1 13.5l8.7-14.8h1.5l-8.7 14.8zm0.1-14.7q1.5 0 2.4 1 1 1 1 2.8 0 1.8-0.9 2.9-0.9 1-2.4 1-1.5 0-2.4-1-0.9-1-0.9-2.8 0-1.8 0.9-2.8 0.8-1.1 2.3-1.1zm15.7-0.5h1.6q1.4 2.2 2.1 4.4 0.8 2.1 0.8 4.2 0 2.2-0.7 4.3-0.7 2.2-2.1 4.4h-1.5q1.2-2.1 1.8-4.3 0.6-2.1 0.6-4.3 0-2.2-0.6-4.4-0.7-2.1-2-4.3z"/>
		<path id="Path 21" fill-rule="evenodd" class="s9" d="m660.38 339.11l10.62-19.79"/>
		<path id="Path 22" fill-rule="evenodd" class="s10" d="m676.44 342.47l-26.91 16.67-0.98-31.64z"/>
		<path id="K-, Na-, H-, Al-, Fe-CEC" class="s8" aria-label="K-, Na-, H-, Al-, Fe-CEC"  d="m246.9 630v-22.7h5.8v8.3l8.4-8.3h6.8l-10.9 10.8 12 11.9h-7.3l-9-8.9v8.9zm20.8-6.7v-4.5h9.6v4.5zm14.5 5.5v-4.7h5.4v4.7l-3.7 5.6h-3.3zm21.7 1.3v-22.7h6.6l8.2 15.5v-15.5h5.5v22.7h-6.5l-8.2-15.6v15.6zm36.2-7.7h-2.9q-1.7 0-2.5 0.6-0.9 0.6-0.9 1.7 0 1 0.7 1.6 0.7 0.6 1.9 0.6 1.6 0 2.6-1.1 1.1-1.1 1.1-2.8zm5.5-2v9.7h-5.5v-2.5q-1.1 1.5-2.5 2.2-1.4 0.7-3.3 0.7-2.7 0-4.3-1.5-1.7-1.6-1.7-4 0-3 2.1-4.4 2.1-1.4 6.5-1.4h3.2v-0.4q0-1.3-1-1.9-1.1-0.6-3.2-0.6-1.8 0-3.3 0.3-1.5 0.4-2.8 1.1v-4.2q1.8-0.4 3.5-0.6 1.8-0.2 3.6-0.2 4.6 0 6.6 1.8 2.1 1.8 2.1 5.9zm4.1 2.9v-4.4h9.5v4.4zm14.5 5.5v-4.6h5.5v4.6l-3.8 5.7h-3.2zm22.7 1.3v-22.7h5.8v8.6h8.7v-8.6h5.8v22.7h-5.8v-9.7h-8.7v9.7zm24.9-6.8v-4.4h9.5v4.4zm14.5 5.5v-4.6h5.5v4.6l-3.8 5.7h-3.2zm37.8 1.2l-1.4-4.1h-9.1l-1.5 4.1h-5.8l8.3-22.7h7l8.4 22.7zm-6-17.3l-3.1 9h6.2zm14.6 17.3v-23.6h5.4v23.6zm9.1-6.7v-4.4h9.5v4.4zm14.5 5.5v-4.6h5.5v4.6l-3.8 5.7h-3.2zm22.7 1.2v-22.7h15.8v4.4h-10v4.3h9.4v4.4h-9.4v9.6zm36.8-8.5v1.5h-12.7q0.2 1.9 1.3 2.9 1.2 0.9 3.4 0.9 1.7 0 3.5-0.5 1.8-0.5 3.7-1.5v4.2q-2 0.7-3.9 1.1-1.9 0.3-3.8 0.3-4.7 0-7.2-2.3-2.6-2.3-2.6-6.6 0-4.1 2.5-6.5 2.5-2.4 6.9-2.4 4.1 0 6.5 2.4 2.4 2.4 2.4 6.5zm-12.7-1.9h7.1q0-1.5-0.9-2.4-0.9-1-2.4-1-1.6 0-2.5 0.9-1 0.9-1.3 2.5zm15.8 3.7v-4.5h9.5v4.5zm32.2 0.8v4.7q-1.7 0.8-3.4 1.2-1.7 0.4-3.6 0.4-5.7 0-9-3.1-3.3-3.2-3.3-8.6 0-5.4 3.3-8.6 3.3-3.2 9-3.2 1.9 0 3.6 0.4 1.7 0.5 3.4 1.3v4.7q-1.7-1.1-3.2-1.6-1.6-0.5-3.4-0.5-3.1 0-4.9 2-1.8 2-1.8 5.5 0 3.5 1.8 5.5 1.8 2 4.9 2 1.8 0 3.4-0.5 1.5-0.5 3.2-1.6zm5 5.9v-22.7h15.8v4.4h-10v4.3h9.4v4.4h-9.4v5.2h10.3v4.4zm39-5.9v4.7q-1.6 0.8-3.4 1.2-1.7 0.4-3.6 0.4-5.7 0-9-3.1-3.3-3.2-3.3-8.6 0-5.4 3.3-8.6 3.3-3.2 9-3.2 1.9 0 3.6 0.4 1.8 0.5 3.4 1.3v4.7q-1.7-1.1-3.2-1.6-1.6-0.5-3.4-0.5-3.1 0-4.9 2-1.8 2-1.8 5.5 0 3.5 1.8 5.5 1.8 2 4.9 2 1.8 0 3.4-0.5 1.5-0.5 3.2-1.6z"/>
		<g id="Folder 1">
			<path id="Path 25" fill-rule="evenodd" class="s9" d="m233.29 595.22l9.52 22.25"/>
			<path id="Path 26" fill-rule="evenodd" class="s10" d="m220.64 602.67l3.77-31.43 25.34 18.98z"/>
		</g>
		<path id="(%)" class="s8" aria-label="(%)"  d="m386.5 638.2h1.5q-1.2 2.2-1.9 4.4-0.6 2.1-0.6 4.3 0 2.2 0.6 4.3 0.7 2.2 1.9 4.4h-1.5q-1.4-2.3-2.1-4.4-0.7-2.2-0.7-4.3 0-2.1 0.7-4.3 0.7-2.1 2.1-4.4zm16.6 8.6q-0.8 0-1.3 0.7-0.4 0.7-0.4 1.9 0 1.3 0.4 2 0.5 0.7 1.3 0.7 0.8 0 1.3-0.7 0.5-0.7 0.5-2 0-1.2-0.5-1.9-0.5-0.7-1.3-0.7zm0-1.2q1.5 0 2.4 1 0.9 1 0.9 2.8 0 1.8-0.9 2.8-0.9 1.1-2.4 1.1-1.5 0-2.4-1.1-0.8-1-0.8-2.8 0-1.8 0.8-2.8 0.9-1 2.4-1zm-9.8-5.8q-0.8 0-1.3 0.7-0.4 0.7-0.4 1.9 0 1.3 0.4 2 0.5 0.7 1.3 0.7 0.9 0 1.3-0.7 0.5-0.7 0.5-2 0-1.2-0.5-1.9-0.4-0.7-1.3-0.7zm-0.3 13.5l8.9-14.7h1.5l-8.8 14.7zm0.3-14.7q1.5 0 2.3 1 0.9 1 0.9 2.8 0 1.8-0.9 2.9-0.8 1-2.3 1-1.6 0-2.4-1-0.9-1.1-0.9-2.9 0-1.7 0.9-2.8 0.9-1 2.4-1zm16.2-0.4h1.5q1.4 2.3 2.1 4.4 0.7 2.2 0.7 4.3 0 2.1-0.7 4.3-0.7 2.1-2.1 4.4h-1.5q1.2-2.2 1.9-4.4 0.6-2.1 0.6-4.3 0-2.2-0.6-4.3-0.7-2.2-1.9-4.4z"/>
		<path id="Path 27" fill-rule="evenodd" class="s1" d="m613.5 371.19l0.89 12.6-27 2.75 2.06-13.49-85.9-127.05z"/>
		<path id="30 " class="s8" aria-label="30 "  d="m17.9 552.3q1.7 0.3 2.6 1.4 1 1.1 1 2.8 0 2.5-1.8 3.9-1.7 1.4-4.9 1.4-1.1 0-2.2-0.3-1.1-0.2-2.3-0.6v-2.2q0.9 0.5 2.1 0.8 1.1 0.3 2.3 0.3 2.2 0 3.3-0.8 1.2-0.9 1.2-2.5 0-1.5-1.1-2.4-1-0.8-2.9-0.8h-2v-1.9h2.1q1.7 0 2.6-0.7 0.9-0.7 0.9-1.9 0-1.4-1-2.1-0.9-0.7-2.6-0.7-1 0-2.1 0.2-1 0.3-2.3 0.7v-2.1q1.3-0.3 2.4-0.5 1.2-0.2 2.2-0.2 2.6 0 4.1 1.2 1.6 1.2 1.6 3.2 0 1.4-0.9 2.4-0.8 1-2.3 1.4zm12.8-6.4q-1.7 0-2.6 1.8-0.9 1.7-0.9 5.2 0 3.5 0.9 5.3 0.9 1.7 2.6 1.7 1.8 0 2.7-1.7 0.9-1.8 0.9-5.3 0-3.5-0.9-5.2-0.9-1.8-2.7-1.8zm0-1.8q2.9 0 4.4 2.3 1.5 2.2 1.5 6.5 0 4.3-1.5 6.6-1.5 2.2-4.4 2.2-2.8 0-4.3-2.2-1.5-2.3-1.5-6.6 0-4.3 1.5-6.5 1.5-2.3 4.3-2.3z"/>
		<path id="65 " class="s8" aria-label="65 "  d="m172.1 362.4q-1.6 0-2.5 1-0.9 1.1-0.9 3 0 1.8 0.9 2.9 0.9 1 2.5 1 1.5 0 2.4-1 0.9-1.1 0.9-2.9 0-1.9-0.9-3-0.9-1-2.4-1zm4.5-7.2v2.1q-0.8-0.4-1.7-0.7-0.9-0.2-1.8-0.2-2.2 0-3.4 1.6-1.2 1.5-1.4 4.6 0.7-1 1.7-1.5 1-0.5 2.2-0.5 2.6 0 4.1 1.5 1.4 1.6 1.4 4.3 0 2.6-1.5 4.2-1.6 1.5-4.1 1.5-3 0-4.5-2.2-1.6-2.3-1.6-6.6 0-4 1.9-6.4 1.9-2.4 5.2-2.4 0.8 0 1.7 0.2 0.9 0.1 1.8 0.5zm5.1 8.1v-8.5h9.1v1.9h-7v4.2q0.5-0.2 1-0.2 0.5-0.1 1-0.1 2.9 0 4.6 1.5 1.6 1.6 1.6 4.2 0 2.8-1.7 4.3-1.7 1.5-4.8 1.5-1.1 0-2.2-0.1-1.1-0.2-2.3-0.6v-2.3q1 0.6 2.1 0.8 1.1 0.3 2.3 0.3 2 0 3.2-1 1.1-1.1 1.1-2.9 0-1.7-1.1-2.8-1.2-1-3.2-1-0.9 0-1.8 0.2-0.9 0.2-1.9 0.6z"/>
		<path id="85 " class="s8" aria-label="85 "  d="m293.3 224.9q-1.6 0-2.6 0.9-0.9 0.8-0.9 2.4 0 1.5 0.9 2.4 1 0.9 2.6 0.9 1.7 0 2.6-0.9 0.9-0.9 0.9-2.4 0-1.6-0.9-2.4-0.9-0.9-2.6-0.9zm-2.3-1q-1.5-0.3-2.3-1.4-0.8-1-0.8-2.4 0-2.1 1.4-3.3 1.5-1.1 4-1.1 2.5 0 4 1.1 1.4 1.2 1.4 3.3 0 1.4-0.8 2.4-0.8 1-2.3 1.4 1.7 0.4 2.6 1.5 0.9 1.2 0.9 2.8 0 2.5-1.5 3.8-1.5 1.3-4.3 1.3-2.8 0-4.3-1.3-1.5-1.3-1.5-3.8 0-1.6 0.9-2.8 0.9-1.1 2.6-1.5zm-0.8-3.6q0 1.3 0.8 2 0.8 0.8 2.3 0.8 1.5 0 2.3-0.8 0.9-0.7 0.9-2 0-1.3-0.9-2.1-0.8-0.7-2.3-0.7-1.5 0-2.3 0.7-0.8 0.8-0.8 2.1zm13.1 4.2v-8.5h9v1.9h-6.9v4.2q0.5-0.2 1-0.3 0.5-0.1 1-0.1 2.8 0 4.5 1.6 1.6 1.5 1.6 4.2 0 2.8-1.7 4.3-1.7 1.5-4.8 1.5-1.1 0-2.2-0.2-1.1-0.2-2.3-0.5v-2.3q1.1 0.5 2.2 0.8 1.1 0.3 2.3 0.3 1.9 0 3.1-1.1 1.1-1 1.1-2.8 0-1.8-1.1-2.8-1.2-1-3.1-1-1 0-1.9 0.2-0.9 0.2-1.8 0.6z"/>
		<path id="90 " class="s8" aria-label="90 "  d="m324.1 186.9v-2.1q0.8 0.4 1.7 0.7 0.9 0.2 1.8 0.2 2.3 0 3.4-1.5 1.3-1.6 1.4-4.7-0.6 1-1.6 1.5-1.1 0.5-2.3 0.5-2.5 0-4-1.5-1.5-1.6-1.5-4.2 0-2.7 1.5-4.2 1.6-1.6 4.2-1.6 2.9 0 4.5 2.2 1.5 2.3 1.5 6.6 0 4-1.9 6.4-1.9 2.4-5.1 2.4-0.9 0-1.8-0.2-0.9-0.1-1.8-0.5zm4.6-7.2q1.5 0 2.4-1 0.9-1.1 0.9-2.9 0-1.9-0.9-2.9-0.9-1.1-2.4-1.1-1.6 0-2.5 1.1-0.9 1-0.9 2.9 0 1.8 0.9 2.9 0.9 1 2.5 1zm15.1-7.9q-1.8 0-2.7 1.7-0.9 1.8-0.9 5.3 0 3.5 0.9 5.2 0.9 1.8 2.7 1.8 1.8 0 2.6-1.8 0.9-1.7 0.9-5.2 0-3.5-0.9-5.3-0.8-1.7-2.6-1.7zm0-1.8q2.8 0 4.3 2.2 1.5 2.3 1.5 6.6 0 4.3-1.5 6.6-1.5 2.2-4.3 2.2-2.9 0-4.4-2.2-1.5-2.3-1.5-6.6 0-4.3 1.5-6.6 1.5-2.2 4.4-2.2z"/>
		<path id="100 " class="s8" aria-label="100 "  d="m364.1 135.3v-1.9h3.7v-13l-4.1 0.8v-2.1l4.1-0.8h2.3v15.1h3.8v1.9zm19.3-15.5q-1.7 0-2.6 1.7-0.9 1.8-0.9 5.3 0 3.5 0.9 5.3 0.9 1.7 2.6 1.7 1.8 0 2.7-1.8 0.9-1.7 0.9-5.2 0-3.5-0.9-5.3-0.9-1.7-2.7-1.7zm0-1.8q2.9 0 4.4 2.2 1.5 2.3 1.5 6.6 0 4.3-1.5 6.6-1.5 2.2-4.4 2.2-2.8 0-4.3-2.2-1.5-2.3-1.5-6.6 0-4.3 1.5-6.6 1.5-2.2 4.3-2.2zm14.9 1.8q-1.8 0-2.7 1.7-0.9 1.8-0.9 5.3 0 3.5 0.9 5.2 0.9 1.8 2.7 1.8 1.8 0 2.7-1.8 0.9-1.7 0.9-5.2 0-3.5-1-5.3-0.8-1.7-2.6-1.7zm0-1.8q2.8 0 4.3 2.2 1.6 2.3 1.6 6.6 0 4.3-1.6 6.5-1.5 2.3-4.3 2.3-2.9 0-4.4-2.2-1.5-2.3-1.5-6.6 0-4.3 1.5-6.6 1.5-2.2 4.4-2.2z"/>
		<path id="0 " class="s8" aria-label="0 "  d="m426.5 119.4q-1.6-0.8-3.2 0.3-1.6 1.2-3.2 4.3-1.6 3.1-1.6 5.1 0 1.9 1.5 2.7 1.6 0.9 3.2-0.3 1.6-1.1 3.2-4.2 1.6-3.1 1.6-5.1 0.1-2-1.5-2.8zm0.8-1.6q2.6 1.3 2.8 4 0.4 2.7-1.6 6.5-2 3.8-4.4 5.2-2.4 1.3-4.9 0-2.5-1.4-2.8-4.1-0.3-2.7 1.6-6.5 2-3.8 4.4-5.1 2.4-1.3 4.9 0z"/>
		<path id="6 " class="s8" aria-label="6 "  d="m453.8 158.9q-1.4-0.7-2.7-0.2-1.3 0.5-2.1 2.2-0.9 1.6-0.6 3 0.3 1.3 1.7 2 1.4 0.7 2.7 0.2 1.3-0.5 2.1-2.1 0.9-1.7 0.6-3-0.4-1.4-1.7-2.1zm7.3-4.3l-0.9 1.8q-0.6-0.7-1.3-1.3-0.7-0.6-1.4-1-2.1-1.1-3.9-0.2-1.7 0.8-3.3 3.5 1.1-0.6 2.2-0.6 1.1 0 2.2 0.5 2.3 1.2 2.9 3.3 0.6 2-0.6 4.4-1.2 2.3-3.3 3-2.1 0.7-4.4-0.5-2.6-1.3-3-4-0.3-2.8 1.6-6.6 1.9-3.6 4.7-4.8 2.8-1.3 5.7 0.2 0.7 0.4 1.4 1 0.7 0.5 1.4 1.3z"/>
		<path id="10 " class="s8" aria-label="10 "  d="m472.6 201.6l0.9-1.7 3.3 1.8 6-11.6-4-1.1 0.9-1.9 4 1.2 2.1 1-7 13.4 3.4 1.7-0.9 1.7zm24.3-4.8q-1.6-0.8-3.2 0.3-1.6 1.2-3.2 4.3-1.6 3.1-1.6 5 0 2 1.6 2.8 1.6 0.8 3.2-0.3 1.6-1.1 3.2-4.2 1.6-3.2 1.6-5.1 0-2-1.6-2.8zm0.9-1.6q2.5 1.3 2.8 4 0.3 2.7-1.7 6.5-2 3.8-4.3 5.1-2.4 1.4-5 0-2.5-1.3-2.8-4-0.3-2.7 1.7-6.5 2-3.8 4.3-5.1 2.4-1.3 5 0z"/>
		<path id="0 " class="s8" aria-label="0 "  d="m782.3 566.7q-1.7 0.7-1.8 2.6-0.2 2 1.2 5.2 1.3 3.3 2.8 4.5 1.5 1.3 3.1 0.6 1.7-0.7 1.8-2.6 0.2-2-1.1-5.2-1.4-3.2-2.9-4.5-1.5-1.3-3.1-0.6zm-0.7-1.7q2.6-1.1 4.9 0.4 2.2 1.5 3.9 5.5 1.6 4 1.1 6.7-0.5 2.6-3.2 3.7-2.6 1.1-4.9-0.4-2.2-1.5-3.9-5.5-1.6-4-1.1-6.6 0.5-2.7 3.2-3.8z"/>
		<path id="70 " class="s8" aria-label="70 "  d="m26.5 573.9l-0.8-1.8 10.1-4.2 0.4 0.9 0.4 17.2-2.2 0.9-0.4-16.1zm18.7-8.2q-1.7 0.7-1.8 2.6-0.2 2 1.1 5.2 1.4 3.3 2.9 4.5 1.5 1.3 3.1 0.6 1.7-0.7 1.8-2.6 0.2-2-1.2-5.2-1.3-3.2-2.8-4.5-1.5-1.3-3.1-0.6zm-0.7-1.7q2.6-1.1 4.9 0.4 2.2 1.5 3.9 5.5 1.6 4 1.1 6.7-0.5 2.6-3.2 3.7-2.6 1.1-4.9-0.4-2.3-1.5-3.9-5.5-1.6-4-1.1-6.6 0.5-2.7 3.2-3.8z"/>
		<path id="70 " class="s8" aria-label="70 "  d="m784.4 537.5l0.9-1.7 9.7 5-0.4 0.9-12.9 11.4-2.1-1.1 12.1-10.7zm18.2 9q-1.6-0.8-3.2 0.3-1.6 1.1-3.2 4.3-1.6 3.1-1.6 5 0 2 1.6 2.8 1.6 0.8 3.2-0.3 1.6-1.2 3.2-4.3 1.6-3.1 1.6-5 0-2-1.6-2.8zm0.9-1.7q2.5 1.4 2.8 4.1 0.3 2.7-1.7 6.5-2 3.8-4.3 5.1-2.4 1.3-5 0-2.5-1.3-2.8-4-0.3-2.7 1.7-6.5 2-3.8 4.3-5.1 2.4-1.4 5-0.1z"/>
		<path id="75 " class="s8" aria-label="75 "  d="m226.1 286.1v-1.9h11v1l-6.2 16h-2.4l5.8-15.1zm15.5 6.6v-8.5h9v1.9h-6.9v4.2q0.5-0.2 1-0.3 0.5-0.1 1-0.1 2.8 0 4.5 1.6 1.7 1.6 1.7 4.2 0 2.8-1.8 4.3-1.7 1.5-4.8 1.5-1 0-2.2-0.2-1.1-0.1-2.2-0.5v-2.3q1 0.5 2.1 0.8 1.1 0.3 2.3 0.3 2 0 3.1-1.1 1.2-1 1.2-2.8 0-1.7-1.2-2.8-1.1-1-3.1-1-0.9 0-1.9 0.2-0.9 0.2-1.8 0.6z"/>
		<path id="95 " class="s8" aria-label="95 "  d="m343.3 166.4v-2.1q0.9 0.4 1.8 0.6 0.8 0.3 1.7 0.3 2.3 0 3.5-1.6 1.2-1.5 1.4-4.6-0.7 0.9-1.7 1.5-1 0.5-2.3 0.5-2.5 0-4-1.5-1.5-1.6-1.5-4.3 0-2.6 1.6-4.2 1.5-1.6 4.1-1.6 2.9 0 4.5 2.3 1.5 2.3 1.5 6.6 0 4-1.9 6.4-1.9 2.4-5.1 2.4-0.9 0-1.8-0.2-0.8-0.2-1.8-0.5zm4.6-7.2q1.5 0 2.4-1.1 0.9-1 0.9-2.9 0-1.8-0.9-2.9-0.9-1-2.4-1-1.6 0-2.5 1-0.9 1.1-0.9 2.9 0 1.9 0.9 2.9 0.9 1.1 2.5 1.1zm10.2-0.9v-8.6h9v2h-6.9v4.2q0.5-0.2 1-0.3 0.5-0.1 1-0.1 2.9 0 4.5 1.6 1.7 1.5 1.7 4.2 0 2.7-1.7 4.3-1.7 1.5-4.8 1.5-1.1 0-2.2-0.2-1.1-0.2-2.3-0.5v-2.4q1 0.6 2.1 0.9 1.1 0.2 2.3 0.2 2 0 3.1-1 1.2-1 1.2-2.8 0-1.8-1.2-2.8-1.1-1.1-3.1-1.1-0.9 0-1.8 0.3-0.9 0.2-1.9 0.6z"/>
		<path id="Path 41" fill-rule="evenodd" class="s11" d="m127.64 700.38v24.9h-24.9v-24.9z"/>
		<path id="Path 42" fill-rule="evenodd" class="s12" d="m127.64 735.51v24.9h-24.9v-24.9z"/>
		<path id="Path 43" fill-rule="evenodd" class="s2" d="m127.64 770.64v24.9h-24.9v-24.9z"/>
		<path id="Path 44" fill-rule="evenodd" class="s1" d="m494.03 700.56v24.9h-24.9v-24.9z"/>
		<path id="Path 45" fill-rule="evenodd" class="s10" d="m494.03 735.51v24.9h-24.9v-24.9z"/>
		<path id="optimal structure good structure" class="s8" aria-label="optimal structure
good structure 
reasonable structure "  d="m145.3 708.9q-1.7 0-2.6 1.3-1 1.3-1 3.6 0 2.3 0.9 3.6 1 1.3 2.7 1.3 1.7 0 2.7-1.3 1-1.3 1-3.6 0-2.3-1-3.6-1-1.3-2.7-1.3zm0-1.8q2.8 0 4.3 1.8 1.6 1.7 1.6 4.9 0 3.1-1.6 4.9-1.5 1.8-4.3 1.8-2.7 0-4.3-1.8-1.5-1.8-1.5-4.9 0-3.2 1.5-4.9 1.6-1.8 4.3-1.8zm11.4 11.1v6.8h-2.1v-17.6h2.1v1.9q0.6-1.1 1.6-1.7 1.1-0.5 2.5-0.5 2.3 0 3.7 1.8 1.5 1.9 1.5 4.9 0 3-1.5 4.8-1.4 1.9-3.7 1.9-1.4 0-2.5-0.6-1-0.5-1.6-1.7zm7.1-4.4q0-2.3-0.9-3.7-1-1.3-2.7-1.3-1.6 0-2.6 1.3-0.9 1.4-0.9 3.7 0 2.3 0.9 3.6 1 1.3 2.6 1.3 1.7 0 2.7-1.3 0.9-1.3 0.9-3.6zm5.6-10h2.1v3.6h4.3l0.1 1.6h-4.4v6.9q0 1.6 0.5 2 0.4 0.5 1.7 0.5h2.2v1.7h-2.2q-2.4 0-3.3-0.9-1-0.9-1-3.3v-6.9h-1.5v-1.6h1.5zm9.2 16.4v-12.8h2.1v12.8zm0-15.1v-2.7h2.1v2.7zm16.4 4.7q0.8-1.4 1.9-2 1.1-0.7 2.6-0.7 2 0 3 1.4 1.1 1.4 1.1 3.9v7.7h-2.1v-7.6q0-1.8-0.6-2.7-0.7-0.9-2-0.9-1.6 0-2.6 1.1-0.9 1.1-0.9 2.9v7.2l-2.1 0.1v-7.7q0-1.8-0.7-2.7-0.6-0.9-2-0.9-1.6 0-2.5 1.1-1 1.1-1 2.9v7.3h-2.1v-12.8h2.1v2q0.7-1.2 1.7-1.8 1-0.5 2.4-0.5 1.4 0 2.4 0.7 0.9 0.7 1.4 2zm20.7 3.9h-2.1q-2.5 0-3.5 0.6-1 0.6-1 2 0 1.1 0.7 1.8 0.8 0.6 2 0.6 1.8 0 2.8-1.2 1.1-1.3 1.1-3.3zm2.1-0.9v7.3h-2.1v-1.9q-0.7 1.1-1.8 1.7-1.1 0.5-2.6 0.5-2 0-3.1-1-1.2-1.2-1.2-3 0-2.2 1.4-3.2 1.5-1.1 4.4-1.1h2.9v-0.2q0-1.5-1-2.3-0.9-0.8-2.6-0.8-1.1 0-2.2 0.3-1 0.2-2 0.8v-2q1.2-0.4 2.3-0.6 1.1-0.3 2.1-0.3 2.8 0 4.1 1.5 1.4 1.4 1.4 4.3zm4.3 7.3v-17.7h2.1v17.7zm22-12.4v2q-0.9-0.5-1.8-0.7-1-0.2-2-0.2-1.6 0-2.3 0.5-0.8 0.5-0.8 1.4 0 0.7 0.5 1.2 0.6 0.4 2.3 0.7l0.7 0.2q2.2 0.5 3.2 1.4 0.9 0.8 0.9 2.4 0 1.8-1.4 2.8-1.4 1-3.9 1-1 0-2.1-0.2-1.1-0.2-2.3-0.6v-2.1q1.1 0.6 2.3 0.9 1.1 0.3 2.2 0.3 1.5 0 2.3-0.5 0.8-0.5 0.8-1.5 0-0.8-0.6-1.3-0.6-0.4-2.5-0.8l-0.8-0.2q-1.9-0.4-2.8-1.3-0.8-0.8-0.8-2.3 0-1.8 1.2-2.8 1.3-1 3.7-1 1.1 0 2.1 0.2 1.1 0.2 1.9 0.5zm4-4h2.1v3.6h4.3v1.7h-4.3v6.9q0 1.6 0.4 2 0.5 0.4 1.8 0.4h2.1v1.8h-2.1q-2.4 0-3.4-0.9-0.9-0.9-0.9-3.3v-6.9h-1.5v-1.7h1.5zm16.6 3.5v2.1q-0.4-0.2-0.8-0.3-0.4-0.1-0.9-0.1-1.8 0-2.7 1.2-1 1.1-1 3.3v6.7h-2.1v-12.7h2.1v1.9q0.7-1.1 1.7-1.7 1.1-0.5 2.6-0.5 0.2 0 0.5 0 0.3 0 0.6 0.1zm2 7.9v-7.7h2.1v7.6q0 1.8 0.7 2.7 0.7 0.9 2.1 0.9 1.7 0 2.7-1.1 1-1 1-2.9v-7.2h2.1v12.7h-2.1v-1.9q-0.8 1.1-1.8 1.7-1 0.5-2.3 0.5-2.2 0.1-3.4-1.3-1.1-1.4-1.1-4zm5.3-8zm18.9 0.7v2q-0.9-0.5-1.8-0.7-0.9-0.3-1.8-0.3-2.1 0-3.2 1.3-1.1 1.3-1.1 3.6 0 2.4 1.1 3.7 1.1 1.3 3.2 1.3 0.9 0 1.8-0.3 0.9-0.2 1.8-0.7v1.9q-0.9 0.4-1.9 0.6-0.9 0.2-2 0.2-2.8 0-4.5-1.8-1.7-1.8-1.7-4.9 0-3.1 1.7-4.9 1.7-1.8 4.7-1.8 0.9 0 1.9 0.3 0.9 0.1 1.8 0.5zm3.6-4.1h2.1v3.7h4.3v1.6h-4.3v6.9q0 1.6 0.4 2 0.4 0.5 1.7 0.5h2.2v1.7h-2.2q-2.4 0-3.3-0.9-0.9-0.9-0.9-3.3v-6.9h-1.6v-1.6h1.6zm8.9 11.3v-7.7h2.1v7.6q0 1.8 0.7 2.7 0.7 0.9 2.2 0.9 1.7 0 2.6-1 1-1.1 1-3v-7.2h2.1v12.7h-2.1v-1.9q-0.7 1.1-1.7 1.7-1 0.6-2.4 0.6-2.2 0-3.3-1.4-1.2-1.4-1.2-4zm5.3-8zm17.1 0.1v2.1q-0.3-0.2-0.7-0.3-0.5-0.1-1-0.1-1.7 0-2.7 1.2-0.9 1.1-0.9 3.3v6.7h-2.1v-12.7h2.1v2q0.6-1.2 1.7-1.8 1-0.5 2.6-0.5 0.2 0 0.4 0 0.3 0 0.6 0.1zm12.6 6v1h-9.6q0.1 2.2 1.3 3.4 1.2 1.1 3.3 1.1 1.2 0 2.3-0.3 1.1-0.3 2.2-0.9v2q-1.1 0.5-2.3 0.7-1.2 0.3-2.4 0.3-3 0-4.8-1.8-1.8-1.8-1.8-4.8 0-3.2 1.7-5 1.7-1.8 4.6-1.8 2.5 0 4 1.6 1.5 1.7 1.5 4.5zm-9.5-0.6h7.4q0-1.7-0.9-2.7-1-1.1-2.5-1.1-1.8 0-2.8 1-1.1 1-1.2 2.8zm-180.1 35.8q0-2.2-1-3.5-0.9-1.3-2.6-1.3-1.7 0-2.6 1.3-1 1.3-1 3.5 0 2.3 1 3.6 0.9 1.2 2.6 1.2 1.7 0 2.6-1.2 1-1.3 1-3.6zm2.1-6.2v11.2q0 3.2-1.5 4.8-1.4 1.6-4.4 1.6-1.1 0-2.1-0.1-1-0.2-1.9-0.6v-2q0.9 0.5 1.8 0.7 0.9 0.3 1.9 0.3 2 0 3.1-1.1 1-1.1 1-3.2v-1.1q-0.7 1.1-1.7 1.7-1 0.6-2.4 0.6-2.4 0-3.8-1.8-1.4-1.8-1.4-4.8 0-2.9 1.4-4.7 1.4-1.8 3.8-1.8 1.4 0 2.4 0.6 1 0.5 1.7 1.6v-1.9zm9.2 1.5q-1.7 0-2.6 1.3-1 1.3-1 3.6 0 2.3 1 3.6 0.9 1.3 2.6 1.3 1.7 0 2.7-1.3 1-1.3 1-3.6 0-2.3-1-3.6-1-1.3-2.7-1.3zm0-1.8q2.8 0 4.3 1.8 1.6 1.7 1.6 4.9 0 3.1-1.6 4.9-1.5 1.8-4.3 1.8-2.7 0-4.3-1.8-1.5-1.8-1.5-4.9 0-3.2 1.5-4.9 1.6-1.8 4.3-1.8zm14.3 1.8q-1.7 0-2.7 1.3-0.9 1.3-0.9 3.6 0 2.3 0.9 3.6 1 1.3 2.7 1.3 1.7 0 2.7-1.3 0.9-1.3 0.9-3.6 0-2.3-0.9-3.6-1-1.3-2.7-1.3zm0-1.8q2.7 0 4.3 1.8 1.6 1.7 1.6 4.9 0 3.1-1.6 4.9-1.6 1.8-4.3 1.8-2.7 0-4.3-1.8-1.5-1.8-1.5-4.9 0-3.2 1.5-4.9 1.6-1.8 4.3-1.8zm17.7 2.2v-6.9h2.1v17.7h-2.1v-1.9q-0.6 1.2-1.6 1.7-1 0.6-2.5 0.6-2.3 0-3.7-1.9-1.5-1.8-1.5-4.8 0-3 1.5-4.9 1.4-1.8 3.7-1.8 1.5 0 2.5 0.5 1 0.6 1.6 1.7zm-7.1 4.5q0 2.3 0.9 3.6 1 1.3 2.7 1.3 1.6 0 2.6-1.3 0.9-1.3 0.9-3.6 0-2.3-0.9-3.6-1-1.4-2.6-1.4-1.7 0-2.7 1.4-0.9 1.3-0.9 3.6zm29.1-6v1.9q-0.9-0.4-1.8-0.6-1-0.3-2-0.3-1.6 0-2.4 0.5-0.8 0.5-0.8 1.4 0 0.8 0.6 1.2 0.6 0.4 2.3 0.8l0.7 0.1q2.2 0.5 3.1 1.4 1 0.9 1 2.4 0 1.8-1.4 2.8-1.4 1.1-3.9 1.1-1 0-2.1-0.2-1.1-0.2-2.4-0.6v-2.2q1.2 0.6 2.3 0.9 1.1 0.3 2.3 0.3 1.4 0 2.2-0.5 0.8-0.5 0.8-1.4 0-0.9-0.6-1.3-0.5-0.5-2.5-0.9l-0.7-0.2q-1.9-0.4-2.8-1.2-0.9-0.9-0.9-2.4 0-1.8 1.3-2.7 1.3-1 3.6-1 1.2 0 2.2 0.1 1 0.2 1.9 0.6zm4-4h2.1v3.6h4.3v1.6h-4.3v6.9q0 1.6 0.4 2 0.4 0.5 1.8 0.5h2.1v1.7h-2.1q-2.5 0-3.4-0.9-0.9-0.9-0.9-3.3v-6.9h-1.6v-1.6h1.6zm16.5 3.4l0.1 2.2q-0.4-0.2-0.8-0.3-0.4-0.1-0.9-0.1-1.8 0-2.8 1.1-0.9 1.2-0.9 3.3v6.8h-2.1v-12.8h2.1v2q0.7-1.2 1.7-1.7 1.1-0.6 2.6-0.6 0.2 0 0.5 0 0.2 0.1 0.5 0.1zm2 7.9v-7.7h2.1v7.6q0 1.9 0.7 2.8 0.8 0.9 2.2 0.9 1.7 0 2.6-1.1 1-1.1 1-3v-7.2h2.1v12.8h-2.1v-2q-0.7 1.2-1.7 1.7-1 0.6-2.4 0.6-2.2 0-3.3-1.4-1.2-1.3-1.2-4zm5.3-8zm18.9 0.8v1.9q-0.9-0.4-1.8-0.7-0.9-0.2-1.8-0.2-2 0-3.1 1.3-1.2 1.3-1.2 3.6 0 2.3 1.2 3.6 1.1 1.3 3.1 1.3 1 0 1.8-0.2 0.9-0.3 1.8-0.8v2q-0.8 0.4-1.8 0.6-0.9 0.2-2 0.2-2.9 0-4.6-1.8-1.7-1.8-1.7-4.9 0-3.1 1.7-4.9 1.8-1.8 4.7-1.8 1 0 1.9 0.2 1 0.2 1.8 0.6zm3.6-4.1h2.1v3.6h4.4v1.6h-4.4v6.9q0 1.6 0.5 2.1 0.4 0.4 1.7 0.4h2.2v1.7l-2.2 0.1q-2.4 0-3.3-0.9-1-1-1-3.4v-6.9h-1.5v-1.6h1.5zm9 11.3v-7.7h2.1v7.7q0 1.8 0.7 2.7 0.7 0.9 2.1 0.9 1.7 0 2.7-1.1 1-1.1 1-3v-7.2h2.1v12.8h-2.1v-2q-0.8 1.2-1.8 1.7-1 0.6-2.3 0.6-2.2 0-3.4-1.4-1.1-1.3-1.1-4zm5.3-8zm17.1 0.1v2.2q-0.4-0.2-0.8-0.3-0.4-0.1-0.9-0.1-1.8 0-2.7 1.1-1 1.2-1 3.3v6.8h-2.1v-12.8h2.1v2q0.7-1.2 1.8-1.7 1-0.6 2.5-0.6 0.2 0 0.5 0 0.3 0.1 0.6 0.1zm12.6 6.1v1h-9.6q0.1 2.2 1.3 3.3 1.1 1.1 3.2 1.1 1.2 0 2.4-0.3 1.1-0.3 2.2-0.9v2q-1.1 0.5-2.3 0.7-1.2 0.3-2.4 0.3-3.1 0-4.8-1.8-1.8-1.8-1.8-4.8 0-3.1 1.7-5 1.7-1.8 4.5-1.8 2.6 0 4.1 1.7 1.5 1.6 1.5 4.5zm-9.6-0.6l7.5-0.1q0-1.7-1-2.7-0.9-1-2.5-1-1.7 0-2.8 1-1 1-1.2 2.8zm-151 30.4v2.2q-0.4-0.2-0.8-0.3-0.4-0.1-0.9-0.1-1.8 0-2.7 1.2-1 1.1-1 3.3v6.7h-2.1v-12.8h2.1v2q0.7-1.1 1.7-1.7 1.1-0.6 2.6-0.6 0.2 0 0.5 0.1 0.3 0 0.6 0zm12.6 6.1v1h-9.7q0.2 2.2 1.3 3.3 1.2 1.2 3.3 1.2 1.2 0 2.3-0.3 1.2-0.3 2.3-0.9v1.9q-1.1 0.5-2.3 0.8-1.2 0.2-2.4 0.2-3.1 0-4.9-1.7-1.7-1.8-1.7-4.9 0-3.1 1.6-4.9 1.7-1.9 4.6-1.9 2.6 0 4.1 1.7 1.5 1.6 1.5 4.5zm-9.6-0.6h7.5q0-1.7-1-2.8-0.9-1-2.5-1-1.7 0-2.8 1-1 1-1.2 2.8zm20.9 1.1h-2.1q-2.5 0-3.5 0.6-1 0.5-1 1.9 0 1.2 0.8 1.8 0.7 0.7 2 0.7 1.7 0 2.8-1.3 1-1.2 1-3.3zm2.1-0.8v7.3h-2.1v-2q-0.7 1.2-1.8 1.7-1 0.6-2.6 0.6-2 0-3.1-1.1-1.2-1.1-1.2-2.9 0-2.2 1.5-3.3 1.4-1.1 4.3-1.1h2.9v-0.2q0-1.4-0.9-2.2-1-0.8-2.7-0.8-1.1 0-2.1 0.2-1.1 0.3-2 0.8v-1.9q1.1-0.5 2.2-0.7 1.1-0.2 2.1-0.2 2.8 0 4.1 1.4 1.4 1.5 1.4 4.4zm12.5-5.1v2q-0.9-0.5-1.9-0.7-0.9-0.3-2-0.3-1.5 0-2.3 0.5-0.8 0.5-0.8 1.5 0 0.7 0.6 1.1 0.5 0.4 2.2 0.8l0.7 0.2q2.3 0.4 3.2 1.3 0.9 0.9 0.9 2.4 0 1.8-1.4 2.9-1.4 1-3.8 1-1.1 0-2.2-0.2-1.1-0.2-2.3-0.6v-2.2q1.2 0.6 2.3 0.9 1.1 0.3 2.2 0.3 1.5 0 2.3-0.5 0.8-0.5 0.8-1.4 0-0.9-0.6-1.3-0.6-0.5-2.5-0.9l-0.7-0.2q-2-0.4-2.9-1.2-0.8-0.9-0.8-2.3 0-1.8 1.3-2.8 1.2-1 3.6-1 1.1 0 2.2 0.2 1 0.1 1.9 0.5zm8.9 1.1q-1.7 0-2.6 1.3-1 1.3-1 3.6 0 2.3 0.9 3.6 1 1.3 2.7 1.3 1.7 0 2.7-1.3 1-1.3 1-3.6 0-2.3-1-3.6-1-1.3-2.7-1.3zm0-1.8q2.8 0 4.3 1.8 1.6 1.7 1.6 4.9 0 3.1-1.6 4.9-1.5 1.8-4.3 1.8-2.7 0-4.3-1.8-1.5-1.8-1.5-4.9 0-3.2 1.5-4.9 1.6-1.8 4.3-1.8zm20 5.3v7.8h-2.1v-7.7q0-1.8-0.7-2.7-0.8-0.9-2.2-0.9-1.7 0-2.6 1.1-1 1.1-1 2.9v7.3h-2.1v-12.8h2.1v2q0.7-1.2 1.7-1.7 1.1-0.6 2.4-0.6 2.2 0 3.3 1.4 1.2 1.3 1.2 3.9zm12 1.3h-2.1q-2.5 0-3.5 0.6-1 0.6-1 2 0 1.1 0.8 1.8 0.7 0.6 2 0.6 1.7 0 2.8-1.2 1-1.2 1-3.3zm2.1-0.9v7.3h-2.1v-1.9q-0.7 1.1-1.8 1.7-1 0.5-2.6 0.5-1.9 0-3.1-1-1.2-1.2-1.2-3 0-2.2 1.5-3.2 1.4-1.1 4.3-1.1h2.9v-0.2q0-1.5-0.9-2.3-1-0.8-2.7-0.8-1.1 0-2.1 0.3-1.1 0.3-2 0.8v-2q1.1-0.4 2.2-0.6 1.1-0.3 2.1-0.3 2.8 0 4.1 1.5 1.4 1.4 1.4 4.3zm13.5 0.9q0-2.3-1-3.6-0.9-1.3-2.6-1.3-1.6 0-2.6 1.3-0.9 1.3-0.9 3.6 0 2.4 0.9 3.7 1 1.3 2.6 1.3 1.7 0 2.6-1.3 1-1.3 1-3.7zm-7.1-11.3v6.9q0.6-1.1 1.6-1.7 1-0.6 2.4-0.6 2.4 0 3.8 1.9 1.5 1.8 1.5 4.8 0 3-1.5 4.9-1.4 1.8-3.8 1.8-1.4 0-2.4-0.5-1-0.6-1.6-1.7v1.9h-2.1v-17.7zm12.7 17.7v-17.7h2.1v17.7zm17.4-6.9v1h-9.6q0.1 2.2 1.3 3.3 1.2 1.2 3.2 1.2 1.3 0 2.4-0.3 1.1-0.3 2.2-0.9v2q-1.1 0.4-2.3 0.7-1.2 0.2-2.4 0.2-3 0-4.8-1.7-1.8-1.8-1.8-4.8 0-3.2 1.7-5 1.7-1.9 4.6-1.9 2.5 0 4 1.7 1.5 1.7 1.5 4.5zm-9.5-0.6h7.4q0-1.7-0.9-2.8-1-1-2.5-1-1.8 0-2.8 1-1.1 1-1.2 2.8zm28.5-4.9v2q-0.9-0.5-1.8-0.7-1-0.2-2-0.2-1.6 0-2.4 0.5-0.7 0.4-0.7 1.4 0 0.7 0.5 1.2 0.6 0.4 2.3 0.7l0.7 0.2q2.2 0.5 3.2 1.4 0.9 0.8 0.9 2.4 0 1.8-1.4 2.8-1.4 1-3.9 1-1 0-2.1-0.2-1.1-0.2-2.4-0.6v-2.1q1.2 0.6 2.3 0.9 1.2 0.3 2.3 0.3 1.5 0 2.3-0.5 0.7-0.5 0.7-1.5 0-0.8-0.5-1.3-0.6-0.4-2.6-0.8l-0.7-0.2q-1.9-0.4-2.8-1.3-0.9-0.8-0.9-2.3 0-1.8 1.3-2.8 1.3-1 3.6-1 1.2 0 2.2 0.2 1 0.2 1.9 0.5zm4-4h2.1v3.6h4.3v1.7h-4.3v6.9q0 1.6 0.4 2 0.5 0.4 1.8 0.4h2.1v1.8h-2.1q-2.5 0-3.4-0.9-0.9-0.9-0.9-3.3v-6.9h-1.5v-1.7h1.5zm16.6 3.5v2.1q-0.4-0.2-0.8-0.3-0.4-0.1-0.9-0.1-1.8 0-2.7 1.2-1 1.1-1 3.3v6.7h-2.1v-12.7h2.1v1.9q0.7-1.1 1.7-1.7 1.1-0.5 2.6-0.5 0.2 0 0.5 0 0.2 0 0.6 0.1zm2 7.9v-7.7h2.1v7.6q0 1.8 0.7 2.7 0.7 0.9 2.1 0.9 1.7 0 2.7-1.1 1-1 1-2.9l-0.1-7.2h2.1v12.7h-2v-1.9q-0.8 1.1-1.8 1.7-1 0.5-2.4 0.5-2.2 0-3.3-1.3-1.1-1.4-1.1-4zm5.2-8.1zm18.9 0.8v2q-0.8-0.5-1.7-0.7-0.9-0.3-1.8-0.3-2.1 0-3.2 1.3-1.1 1.3-1.1 3.6 0 2.4 1.1 3.7 1.1 1.3 3.2 1.3 0.9 0 1.8-0.3 0.9-0.2 1.7-0.7v1.9q-0.8 0.4-1.8 0.6-0.9 0.2-2 0.2-2.9 0-4.5-1.8-1.7-1.8-1.7-4.9 0-3.1 1.7-4.9 1.7-1.8 4.7-1.8 0.9 0 1.9 0.2 0.9 0.2 1.7 0.6zm3.7-4.1h2.1v3.6h4.3v1.7h-4.3v6.9q0 1.6 0.4 2 0.4 0.5 1.7 0.5h2.2v1.7h-2.2q-2.4 0-3.3-0.9-0.9-0.9-0.9-3.3v-6.9h-1.6v-1.6l1.6-0.1zm8.9 11.4v-7.7h2.1v7.6q0 1.8 0.7 2.7 0.7 0.9 2.1 0.9 1.7 0 2.7-1 1-1.1 1-3v-7.2h2.1v12.7h-2.1v-1.9q-0.8 1.1-1.8 1.7-1 0.6-2.3 0.6-2.2 0-3.3-1.4-1.2-1.4-1.2-4zm5.3-8zm17.1 0.1v2.1q-0.3-0.2-0.8-0.3-0.4-0.1-0.9-0.1-1.7 0-2.7 1.2-0.9 1.1-0.9 3.3v6.7h-2.2v-12.7h2.2v1.9q0.6-1.1 1.7-1.7 1-0.5 2.5-0.5 0.3 0 0.5 0 0.3 0 0.6 0.1zm12.6 6v1h-9.6q0.1 2.2 1.3 3.3 1.2 1.2 3.2 1.2 1.2 0 2.4-0.3 1.1-0.3 2.2-0.9v2q-1.1 0.4-2.3 0.7-1.2 0.3-2.4 0.3-3 0-4.8-1.8-1.8-1.8-1.8-4.8 0-3.2 1.7-5 1.7-1.8 4.5-1.8 2.6 0 4.1 1.6 1.5 1.7 1.5 4.5zm-9.6-0.6h7.5q0-1.7-0.9-2.7-1-1.1-2.5-1.1-1.8 0-2.8 1-1.1 1-1.3 2.8z"/>
		<path id="moderate structure  poor structu" class="s8" aria-label="moderate structure 
poor structure 
your plot"  d="m516.2 709.1q0.7-1.4 1.8-2.1 1.1-0.7 2.6-0.7 2 0 3.1 1.4 1.1 1.4 1.1 4v7.7h-2.1v-7.6q0-1.9-0.7-2.7-0.6-0.9-2-0.9-1.6 0-2.5 1-1 1.1-1 3v7.2h-2.1v-7.6q0-1.9-0.6-2.7-0.7-0.9-2-0.9-1.7 0-2.6 1.1-0.9 1-0.9 2.9v7.2h-2.1l-0.1-12.7h2.2v1.9q0.7-1.1 1.7-1.7 1-0.6 2.4-0.6 1.3 0 2.3 0.7 1 0.8 1.5 2.1zm17.7-1q-1.7 0-2.7 1.3-0.9 1.3-0.9 3.6 0 2.3 0.9 3.6 1 1.4 2.7 1.4 1.7 0 2.7-1.4 0.9-1.3 0.9-3.6 0-2.2-0.9-3.6-1-1.3-2.7-1.3zm0-1.8q2.7 0 4.3 1.8 1.6 1.8 1.6 4.9 0 3.2-1.6 5-1.6 1.7-4.3 1.7-2.7 0-4.3-1.7-1.6-1.8-1.6-5 0-3.1 1.6-4.9 1.6-1.8 4.3-1.8zm17.7 2.3v-6.9h2.1v17.7h-2.1v-1.9q-0.6 1.1-1.6 1.7-1 0.5-2.5 0.5-2.3 0-3.7-1.8-1.5-1.9-1.5-4.9 0-3 1.5-4.8 1.4-1.9 3.7-1.9 1.4 0 2.4 0.6 1.1 0.5 1.7 1.7zm-7.1 4.4q0 2.3 0.9 3.7 1 1.3 2.6 1.3 1.7 0 2.7-1.3 0.9-1.4 0.9-3.7 0-2.3-0.9-3.6-1-1.3-2.7-1.3-1.6 0-2.6 1.3-0.9 1.3-0.9 3.6zm24.5-0.5v1h-9.7q0.2 2.2 1.3 3.3 1.2 1.1 3.3 1.1 1.2 0 2.3-0.2 1.1-0.3 2.3-0.9v1.9q-1.2 0.5-2.3 0.8-1.2 0.2-2.5 0.2-3 0-4.8-1.7-1.8-1.8-1.8-4.9 0-3.1 1.7-4.9 1.7-1.9 4.6-1.9 2.6 0 4 1.7 1.6 1.6 1.6 4.5zm-9.6-0.6h7.5q-0.1-1.7-1-2.8-0.9-1-2.5-1-1.8 0-2.8 1-1.1 1-1.2 2.8zm20.4-5.5v2.2q-0.4-0.2-0.8-0.3-0.4-0.1-0.9-0.1-1.8 0-2.7 1.2-1 1.1-1 3.3v6.7h-2.1v-12.8h2.1v2q0.7-1.1 1.7-1.7 1.1-0.6 2.6-0.6 0.2 0 0.5 0.1 0.3 0 0.6 0zm10.1 6.6h-2.1q-2.6 0-3.5 0.6-1 0.5-1 1.9 0 1.2 0.7 1.8 0.8 0.7 2 0.7 1.8 0 2.8-1.3 1.1-1.2 1.1-3.3zm2.1-0.8v7.3h-2.1v-2q-0.7 1.2-1.8 1.7-1.1 0.6-2.6 0.6-2 0-3.2-1.1-1.1-1.1-1.1-3 0-2.1 1.4-3.2 1.5-1.1 4.3-1.1h3v-0.2q0-1.4-1-2.2-0.9-0.8-2.7-0.8-1.1 0-2.1 0.2-1 0.3-2 0.8v-1.9q1.2-0.5 2.3-0.7 1-0.2 2.1-0.2 2.7 0 4.1 1.4 1.4 1.5 1.4 4.4zm4.2-9.1h2.2v3.6h4.3v1.6h-4.3v7q0 1.5 0.4 2 0.4 0.4 1.7 0.4h2.2v1.8h-2.2q-2.4 0-3.3-0.9-1-1-1-3.3v-7h-1.5v-1.6h1.5zm20.1 9.5v1h-9.6q0.1 2.2 1.3 3.3 1.2 1.1 3.3 1.1 1.2 0 2.3-0.3 1.1-0.3 2.3-0.9v2q-1.2 0.5-2.4 0.8-1.1 0.2-2.4 0.2-3 0-4.8-1.8-1.8-1.7-1.8-4.8 0-3.1 1.7-4.9 1.7-1.9 4.6-1.9 2.5 0 4 1.7 1.5 1.6 1.5 4.5zm-9.5-0.6h7.4q0-1.8-0.9-2.8-1-1-2.5-1-1.8 0-2.8 1-1.1 1-1.2 2.8zm28.5-4.9v2q-0.9-0.5-1.8-0.7-1-0.2-2-0.2-1.6 0-2.3 0.4-0.8 0.5-0.8 1.5 0 0.7 0.5 1.1 0.6 0.4 2.3 0.8l0.7 0.2q2.2 0.4 3.2 1.3 0.9 0.9 0.9 2.4 0 1.8-1.4 2.9-1.4 1-3.9 1-1 0-2.1-0.2-1.1-0.2-2.3-0.6v-2.2q1.1 0.6 2.3 0.9 1.1 0.3 2.2 0.3 1.5 0 2.3-0.5 0.8-0.5 0.8-1.4 0-0.8-0.6-1.3-0.6-0.5-2.5-0.9l-0.8-0.2q-1.9-0.4-2.8-1.2-0.8-0.9-0.8-2.3 0-1.8 1.2-2.8 1.3-1 3.7-1 1.1 0 2.1 0.2 1.1 0.1 1.9 0.5zm4-4h2.1v3.6h4.3v1.6h-4.3v7q0 1.5 0.4 2 0.5 0.4 1.8 0.4h2.1v1.8h-2.1q-2.4 0-3.4-0.9-0.9-0.9-0.9-3.3v-7h-1.5v-1.6h1.5zm16.6 3.4v2.2q-0.4-0.2-0.8-0.3-0.4-0.1-0.9-0.1-1.8 0-2.7 1.1-1 1.2-1 3.4v6.7h-2.1v-12.8h2.1v2q0.7-1.2 1.7-1.7 1.1-0.6 2.6-0.6 0.2 0 0.5 0.1 0.3 0 0.6 0zm2 7.9v-7.7h2.1v7.7q0 1.8 0.7 2.7 0.7 0.9 2.1 0.9 1.7 0 2.7-1.1 1-1.1 1-2.9v-7.3h2.1v12.8h-2.1v-2q-0.8 1.2-1.8 1.8-1 0.5-2.3 0.5-2.2 0-3.4-1.4-1.1-1.3-1.1-4zm5.2-8zm19 0.8v2q-0.9-0.5-1.8-0.8-0.9-0.2-1.8-0.2-2.1 0-3.2 1.3-1.1 1.3-1.1 3.6 0 2.3 1.1 3.6 1.1 1.3 3.2 1.3 0.9 0 1.8-0.2 0.9-0.3 1.8-0.7v1.9q-0.9 0.4-1.9 0.6-0.9 0.2-2 0.2-2.8 0-4.5-1.8-1.7-1.8-1.7-4.9 0-3.1 1.7-4.9 1.7-1.8 4.7-1.8 0.9 0 1.9 0.2 0.9 0.2 1.8 0.6zm3.6-4.1h2.1v3.6h4.3v1.6h-4.3v7q0 1.5 0.4 2 0.4 0.4 1.7 0.4h2.2v1.8h-2.2q-2.4 0-3.3-0.9-0.9-0.9-0.9-3.3v-7h-1.6v-1.6h1.6zm8.9 11.4v-7.8h2.1v7.7q0 1.8 0.7 2.7 0.7 0.9 2.2 0.9 1.7 0 2.6-1.1 1-1.1 1-2.9v-7.3h2.1v12.8h-2.1v-2q-0.7 1.2-1.7 1.8-1.1 0.5-2.4 0.5-2.2 0-3.3-1.3-1.2-1.4-1.2-4zm5.3-8.1zm17.1 0.1v2.2q-0.3-0.2-0.7-0.3-0.5-0.1-1-0.1-1.7 0-2.7 1.2-0.9 1.1-0.9 3.3v6.7h-2.1v-12.8h2.1v2q0.6-1.1 1.7-1.7 1-0.6 2.6-0.6 0.2 0 0.4 0.1 0.3 0 0.6 0zm12.6 6.1v1h-9.6q0.1 2.2 1.3 3.3 1.2 1.1 3.3 1.1 1.2 0 2.3-0.3 1.1-0.3 2.2-0.8v1.9q-1.1 0.5-2.3 0.8-1.2 0.2-2.4 0.2-3 0-4.8-1.8-1.8-1.7-1.8-4.8 0-3.1 1.7-4.9 1.7-1.9 4.6-1.9 2.5 0 4 1.7 1.5 1.6 1.5 4.5zm-9.5-0.6h7.4q0-1.8-0.9-2.8-1-1-2.5-1-1.8 0-2.8 1-1.1 1-1.2 2.8zm-211.8 41.5v6.7h-2.1v-17.6h2.1v2q0.6-1.2 1.6-1.7 1-0.6 2.4-0.6 2.4 0 3.8 1.9 1.5 1.8 1.5 4.8 0 3-1.5 4.9-1.4 1.8-3.7 1.8-1.5 0-2.5-0.5-1-0.6-1.6-1.7zm7.1-4.5q0-2.3-1-3.6-0.9-1.3-2.6-1.3-1.6 0-2.6 1.3-0.9 1.3-0.9 3.6 0 2.3 0.9 3.6 1 1.3 2.6 1.3 1.7 0 2.6-1.3 1-1.3 1-3.6zm10.6-4.9q-1.7 0-2.7 1.3-1 1.3-0.9 3.6 0 2.3 0.9 3.6 1 1.3 2.7 1.3 1.7 0 2.7-1.3 0.9-1.3 0.9-3.6 0-2.3-1-3.6-0.9-1.3-2.6-1.3zm0-1.8q2.7 0 4.3 1.8 1.5 1.8 1.6 4.9 0 3.1-1.6 4.9-1.6 1.8-4.3 1.8-2.7 0-4.3-1.8-1.6-1.8-1.6-4.9 0-3.1 1.6-4.9 1.5-1.8 4.3-1.8zm14.3 1.8q-1.7 0-2.7 1.3-1 1.3-1 3.6 0 2.3 1 3.6 1 1.3 2.7 1.3 1.6 0 2.6-1.3 1-1.3 1-3.6 0-2.3-1-3.6-1-1.3-2.6-1.3zm0-1.8q2.7 0 4.3 1.8 1.5 1.8 1.5 4.9 0 3.1-1.5 4.9-1.6 1.8-4.3 1.8-2.8 0-4.3-1.8-1.6-1.8-1.6-4.9 0-3.1 1.6-4.9 1.5-1.8 4.3-1.8zm16.7 0.1v2.2q-0.4-0.2-0.8-0.3-0.4-0.1-0.9-0.1-1.8 0-2.7 1.1-1 1.2-1 3.3v6.8h-2.1v-12.8h2.1v2q0.7-1.2 1.7-1.7 1.1-0.6 2.6-0.6 0.2 0 0.5 0 0.3 0.1 0.6 0.1zm17.7 0.6v2q-0.8-0.5-1.8-0.7-1-0.3-2-0.3-1.5 0-2.3 0.5-0.8 0.5-0.8 1.5 0 0.7 0.5 1.1 0.6 0.4 2.3 0.8l0.7 0.2q2.2 0.4 3.2 1.3 0.9 0.9 0.9 2.4 0 1.8-1.4 2.9-1.4 1-3.8 1-1.1 0-2.2-0.2-1.1-0.2-2.3-0.6v-2.2q1.1 0.6 2.3 0.9 1.1 0.3 2.2 0.3 1.5 0 2.3-0.5 0.8-0.5 0.8-1.4 0-0.9-0.6-1.3-0.6-0.5-2.5-0.9l-0.8-0.2q-1.9-0.4-2.8-1.2-0.8-0.9-0.8-2.3 0-1.8 1.2-2.8 1.3-1 3.7-1 1.1 0 2.1 0.2 1.1 0.1 1.9 0.5zm4-4h2.1v3.6h4.4v1.6h-4.4v7q0 1.5 0.5 2 0.4 0.4 1.7 0.4h2.2v1.8h-2.2q-2.4 0-3.3-0.9-1-1-1-3.3v-7h-1.5v-1.6h1.5zm16.6 3.4v2.2q-0.4-0.2-0.8-0.3-0.4-0.1-0.9-0.1-1.8 0-2.7 1.1-1 1.2-1 3.4v6.7h-2.1v-12.8h2.1v2q0.7-1.2 1.8-1.7 1-0.6 2.5-0.6 0.2 0 0.5 0 0.3 0.1 0.6 0.1zm2 7.9v-7.7h2.1v7.7q0 1.8 0.7 2.7 0.7 0.9 2.1 0.9 1.7 0 2.7-1.1 1-1.1 1-3v-7.2h2.1v12.8h-2.1v-2q-0.8 1.2-1.8 1.7-1 0.6-2.3 0.6-2.2 0-3.4-1.4-1.1-1.3-1.1-4zm5.3-8zm18.9 0.8v2q-0.9-0.5-1.8-0.8-0.9-0.2-1.8-0.2-2.1 0-3.2 1.3-1.1 1.3-1.1 3.6 0 2.3 1.1 3.6 1.1 1.3 3.2 1.3 0.9 0 1.8-0.2 0.9-0.3 1.8-0.8v2q-0.9 0.4-1.9 0.6-0.9 0.2-1.9 0.2-2.9 0-4.6-1.8-1.7-1.8-1.7-4.9 0-3.1 1.7-4.9 1.7-1.8 4.7-1.8 1 0 1.9 0.2 0.9 0.2 1.8 0.6zm3.6-4.1h2.1v3.6h4.3v1.6h-4.3v7q0 1.5 0.4 2 0.4 0.4 1.8 0.4h2.1v1.8h-2.1q-2.5 0-3.4-0.9-0.9-0.9-0.9-3.3v-7h-1.6v-1.6h1.6zm8.9 11.4v-7.8h2.1v7.7q0 1.8 0.7 2.7 0.8 0.9 2.2 0.9 1.7 0 2.6-1.1 1-1.1 1-2.9v-7.3h2.1v12.8h-2.1v-2q-0.7 1.2-1.7 1.8-1 0.5-2.4 0.5-2.2 0-3.3-1.4-1.2-1.3-1.2-3.9zm5.3-8.1zm17.1 0.1v2.2q-0.3-0.2-0.7-0.3-0.4-0.1-0.9-0.1-1.8 0-2.8 1.1-0.9 1.2-0.9 3.4v6.7h-2.1v-12.8h2.1v2q0.6-1.2 1.7-1.7 1.1-0.6 2.6-0.6 0.2 0 0.4 0 0.3 0.1 0.6 0.1zm12.6 6.1v1h-9.6q0.1 2.2 1.3 3.3 1.2 1.1 3.3 1.1 1.2 0 2.3-0.3 1.1-0.3 2.3-0.9v2q-1.2 0.5-2.4 0.8-1.1 0.2-2.4 0.2-3 0-4.8-1.8-1.8-1.7-1.8-4.8 0-3.1 1.7-4.9 1.7-1.9 4.6-1.9 2.5 0 4 1.7 1.5 1.6 1.5 4.5zm-9.5-0.6h7.4q0-1.8-0.9-2.8-1-1-2.5-1-1.8 0-2.8 1-1.1 1-1.2 2.8zm-142.3 30.3l-5.6 14q-0.9 2.3-1.8 3-0.8 0.7-2.2 0.7h-1.7v-1.8h1.2q0.9 0 1.4-0.4 0.5-0.4 1-1.9l0.4-1-5.2-12.6h2.3l4 10 3.9-10zm7.9 1.5q-1.7 0-2.7 1.3-1 1.3-1 3.6 0 2.3 1 3.6 1 1.4 2.7 1.4 1.7 0 2.6-1.4 1-1.3 1-3.6 0-2.2-1-3.6-0.9-1.3-2.6-1.3zm0-1.8q2.7 0 4.3 1.8 1.5 1.8 1.5 4.9 0 3.2-1.5 5-1.6 1.7-4.3 1.7-2.8 0-4.3-1.7-1.6-1.8-1.6-5 0-3.1 1.6-4.9 1.5-1.8 4.3-1.8zm9.1 8.1v-7.8h2.1v7.7q0 1.8 0.7 2.7 0.7 0.9 2.1 0.9 1.7 0 2.7-1.1 1-1.1 1-2.9v-7.3h2.1v12.8h-2.1v-2q-0.8 1.2-1.8 1.8-1 0.5-2.3 0.5-2.2 0-3.4-1.3-1.1-1.4-1.1-4zm5.3-8.1zm17.1 0.1v2.2q-0.4-0.2-0.8-0.3-0.4-0.1-0.9-0.1-1.8 0-2.7 1.2-1 1.1-1 3.3v6.7h-2.1v-12.8h2.1v2q0.7-1.1 1.7-1.7 1.1-0.6 2.6-0.6 0.2 0 0.5 0.1 0.3 0 0.6 0zm11.6 11.1v6.7h-2.1v-17.6h2.1v2q0.7-1.2 1.7-1.7 1-0.6 2.4-0.6 2.3 0 3.8 1.9 1.4 1.8 1.4 4.8 0 3-1.4 4.9-1.5 1.8-3.8 1.8-1.4 0-2.4-0.5-1-0.6-1.7-1.7zm7.2-4.5q0-2.3-1-3.6-0.9-1.3-2.6-1.3-1.7 0-2.6 1.3-1 1.3-1 3.6 0 2.3 1 3.7 0.9 1.3 2.6 1.3 1.7 0 2.6-1.3 1-1.4 1-3.7zm5.6 6.4v-17.7h2.1v17.7zm11.4-11.3q-1.7 0-2.6 1.3-1 1.3-1 3.6 0 2.3 1 3.6 0.9 1.3 2.6 1.3 1.7 0 2.7-1.3 1-1.3 1-3.6 0-2.3-1-3.6-1-1.3-2.7-1.3zm0-1.8q2.8 0 4.3 1.8 1.6 1.8 1.6 4.9 0 3.1-1.6 4.9-1.5 1.8-4.3 1.8-2.7 0-4.3-1.8-1.5-1.8-1.5-4.9 0-3.1 1.5-4.9 1.6-1.8 4.3-1.8zm9.3-3.3h2.1v3.6h4.4v1.6h-4.4v7q0 1.5 0.5 2 0.4 0.4 1.7 0.4h2.2v1.8h-2.2q-2.4 0-3.3-0.9-1-0.9-1-3.3v-6.9h-1.5v-1.7h1.5z"/>
		<path id="Path 49" fill-rule="evenodd" class="s13" d="m481.58 794.34c-6.22 0-11.25-5.03-11.25-11.25 0-6.22 5.03-11.25 11.25-11.25 6.23 0 11.25 5.03 11.25 11.25 0 6.22-5.02 11.25-11.25 11.25z"/>
	</g>
</svg>